<svg width="233" height="39" viewBox="0 0 233 39" fill="none" xmlns="http://www.w3.org/2000/svg">
<path d="M11.02 11.062C12.296 11.062 13.34 11.2553 14.152 11.642C14.9833 12.0093 15.718 12.4443 16.356 12.947C16.7427 13.237 17.0327 13.2757 17.226 13.063C17.4387 12.831 17.5837 12.2993 17.661 11.468H18.328C18.2893 12.2027 18.2603 13.092 18.241 14.136C18.2217 15.1607 18.212 16.5333 18.212 18.254H17.545C17.4097 17.4033 17.2743 16.7073 17.139 16.166C17.023 15.6247 16.8587 15.1607 16.646 14.774C16.4527 14.3873 16.182 14.0103 15.834 13.643C15.2733 12.947 14.587 12.4443 13.775 12.135C12.963 11.8257 12.1027 11.671 11.194 11.671C10.208 11.671 9.338 11.9223 8.584 12.425C7.83 12.9083 7.192 13.6043 6.67 14.513C6.16733 15.4217 5.78067 16.4947 5.51 17.732C5.23933 18.9693 5.104 20.3227 5.104 21.792C5.104 23.3 5.249 24.6727 5.539 25.91C5.829 27.128 6.24467 28.1817 6.786 29.071C7.34667 29.941 8.01367 30.6177 8.787 31.101C9.57967 31.565 10.4593 31.797 11.426 31.797C12.2187 31.797 13.0403 31.6423 13.891 31.333C14.7417 31.0043 15.4183 30.5113 15.921 29.854C16.4623 29.274 16.8297 28.6263 17.023 27.911C17.2357 27.1763 17.4097 26.1807 17.545 24.924H18.212C18.212 26.7027 18.2217 28.143 18.241 29.245C18.2603 30.3277 18.2893 31.246 18.328 32H17.661C17.5837 31.1687 17.4483 30.6467 17.255 30.434C17.081 30.2213 16.7813 30.2503 16.356 30.521C15.6407 31.0237 14.877 31.4683 14.065 31.855C13.2723 32.2223 12.2477 32.406 10.991 32.406C9.077 32.406 7.40467 31.9903 5.974 31.159C4.54333 30.3277 3.43167 29.129 2.639 27.563C1.84633 25.997 1.45 24.112 1.45 21.908C1.45 19.7427 1.856 17.848 2.668 16.224C3.49933 14.6 4.63033 13.3337 6.061 12.425C7.49167 11.5163 9.14467 11.062 11.02 11.062ZM51.2489 11.468C51.1716 12.28 51.1136 13.0727 51.0749 13.846C51.0556 14.6 51.0459 15.18 51.0459 15.586C51.0459 16.0307 51.0556 16.456 51.0749 16.862C51.0942 17.268 51.1136 17.616 51.1329 17.906H50.4659C50.2726 16.456 50.0116 15.3153 49.6829 14.484C49.3736 13.6527 48.9192 13.0533 48.3199 12.686C47.7206 12.3187 46.8602 12.135 45.7389 12.135H44.4919V28.665C44.4919 29.4383 44.5596 30.0183 44.6949 30.405C44.8496 30.7917 45.1396 31.0527 45.5649 31.188C46.0096 31.304 46.6476 31.3813 47.4789 31.42V32C46.9376 31.9613 46.2416 31.942 45.3909 31.942C44.5402 31.9227 43.6702 31.913 42.7809 31.913C41.8529 31.913 40.9732 31.9227 40.1419 31.942C39.3299 31.942 38.6726 31.9613 38.1699 32V31.42C39.0012 31.3813 39.6296 31.304 40.0549 31.188C40.4802 31.0527 40.7702 30.7917 40.9249 30.405C41.0796 30.0183 41.1569 29.4383 41.1569 28.665V12.135H39.8809C38.7982 12.135 37.9476 12.3187 37.3289 12.686C36.7102 13.0533 36.2462 13.6527 35.9369 14.484C35.6276 15.3153 35.3762 16.456 35.1829 17.906H34.5159C34.5546 17.616 34.5739 17.268 34.5739 16.862C34.5932 16.456 34.6029 16.0307 34.6029 15.586C34.6029 15.18 34.5836 14.6 34.5449 13.846C34.5256 13.0727 34.4772 12.28 34.3999 11.468C35.2312 11.4873 36.1399 11.5067 37.1259 11.526C38.1119 11.5453 39.1076 11.555 40.1129 11.555C41.1182 11.555 42.0269 11.555 42.8389 11.555C43.6509 11.555 44.5499 11.555 45.5359 11.555C46.5219 11.555 47.5176 11.5453 48.5229 11.526C49.5282 11.5067 50.4369 11.4873 51.2489 11.468ZM69.3947 11.468V12.048C69.0081 12.1447 68.6117 12.4153 68.2057 12.86C67.8191 13.2853 67.3841 13.962 66.9007 14.89L61.1877 26.229H60.4047L53.6187 13.701C53.2321 13.005 52.9034 12.5603 52.6327 12.367C52.3814 12.1737 52.1494 12.077 51.9367 12.077V11.468C52.3621 11.4873 52.8067 11.5067 53.2707 11.526C53.7347 11.5453 54.2374 11.555 54.7787 11.555C55.4747 11.555 56.2287 11.555 57.0407 11.555C57.8527 11.5357 58.6067 11.5067 59.3027 11.468V12.077C58.8194 12.077 58.3844 12.1253 57.9977 12.222C57.6304 12.3187 57.3791 12.512 57.2437 12.802C57.1277 13.0727 57.2051 13.469 57.4757 13.991L62.2607 23.184L61.7967 23.677L65.3637 16.572C65.9631 15.3927 66.2627 14.484 66.2627 13.846C66.2821 13.1887 66.0694 12.7343 65.6247 12.483C65.1994 12.2123 64.5807 12.0673 63.7687 12.048V11.468C64.3681 11.4873 64.9577 11.5067 65.5377 11.526C66.1177 11.5453 66.6687 11.555 67.1907 11.555C67.6741 11.555 68.0897 11.5453 68.4377 11.526C68.7857 11.5067 69.1047 11.4873 69.3947 11.468ZM62.7247 22.662V28.926C62.7247 29.622 62.7827 30.144 62.8987 30.492C63.0147 30.84 63.2371 31.072 63.5657 31.188C63.8944 31.304 64.3777 31.3813 65.0157 31.42V32C64.5517 31.9613 63.9621 31.942 63.2467 31.942C62.5314 31.9227 61.8064 31.913 61.0717 31.913C60.2791 31.913 59.5251 31.9227 58.8097 31.942C58.0944 31.942 57.5241 31.9613 57.0987 32V31.42C57.7561 31.3813 58.2491 31.304 58.5777 31.188C58.9064 31.072 59.1191 30.84 59.2157 30.492C59.3317 30.144 59.3897 29.622 59.3897 28.926V22.981L61.2747 24.779L62.7247 22.662ZM101.022 11.062C102.917 11.062 104.579 11.4777 106.01 12.309C107.46 13.1403 108.581 14.339 109.374 15.905C110.167 17.4517 110.563 19.3367 110.563 21.56C110.563 23.7253 110.157 25.62 109.345 27.244C108.533 28.868 107.402 30.1343 105.952 31.043C104.502 31.9517 102.849 32.406 100.993 32.406C99.079 32.406 97.4066 31.9903 95.976 31.159C94.5453 30.3277 93.4336 29.129 92.641 27.563C91.8483 25.997 91.452 24.112 91.452 21.908C91.452 19.7427 91.858 17.848 92.67 16.224C93.5013 14.6 94.6323 13.3337 96.063 12.425C97.4936 11.5163 99.1466 11.062 101.022 11.062ZM100.906 11.584C99.7073 11.584 98.6633 12.019 97.774 12.889C96.8846 13.759 96.1983 14.9577 95.715 16.485C95.2316 18.0123 94.99 19.7813 94.99 21.792C94.99 23.8413 95.2606 25.6297 95.802 27.157C96.3433 28.665 97.078 29.8347 98.006 30.666C98.934 31.478 99.9683 31.884 101.109 31.884C102.308 31.884 103.342 31.449 104.212 30.579C105.101 29.709 105.788 28.5103 106.271 26.983C106.774 25.4363 107.025 23.6673 107.025 21.676C107.025 19.6073 106.745 17.819 106.184 16.311C105.643 14.803 104.908 13.643 103.98 12.831C103.071 11.9997 102.047 11.584 100.906 11.584ZM130.949 11.468V12.048C130.311 12.0867 129.827 12.2027 129.499 12.396C129.17 12.5893 128.948 12.9083 128.832 13.353C128.716 13.7783 128.658 14.3873 128.658 15.18V23.561C128.658 24.8757 128.571 26.0453 128.397 27.07C128.223 28.0947 127.913 28.9743 127.469 29.709C126.985 30.521 126.27 31.1783 125.323 31.681C124.395 32.1643 123.283 32.406 121.988 32.406C121.06 32.406 120.161 32.2997 119.291 32.087C118.421 31.8743 117.657 31.4683 117 30.869C116.42 30.347 115.965 29.7767 115.637 29.158C115.308 28.5393 115.086 27.795 114.97 26.925C114.854 26.0357 114.796 24.9433 114.796 23.648V14.542C114.796 13.8267 114.738 13.3047 114.622 12.976C114.525 12.628 114.312 12.396 113.984 12.28C113.655 12.1447 113.162 12.0673 112.505 12.048V11.468C112.949 11.4873 113.52 11.5067 114.216 11.526C114.931 11.5453 115.695 11.555 116.507 11.555C117.241 11.555 117.966 11.5453 118.682 11.526C119.416 11.5067 120.016 11.4873 120.48 11.468V12.048C119.822 12.0673 119.32 12.1447 118.972 12.28C118.643 12.396 118.421 12.628 118.305 12.976C118.189 13.3047 118.131 13.8267 118.131 14.542V24.576C118.131 25.562 118.179 26.4707 118.276 27.302C118.392 28.1333 118.595 28.8583 118.885 29.477C119.194 30.0763 119.639 30.55 120.219 30.898C120.818 31.2267 121.591 31.391 122.539 31.391C123.969 31.391 125.071 31.072 125.845 30.434C126.637 29.7767 127.188 28.8873 127.498 27.766C127.826 26.6253 127.991 25.33 127.991 23.88V15.296C127.991 14.4647 127.913 13.8267 127.759 13.382C127.604 12.9373 127.333 12.6183 126.947 12.425C126.56 12.2123 126.009 12.0867 125.294 12.048V11.468C125.661 11.4873 126.135 11.5067 126.715 11.526C127.295 11.5453 127.826 11.555 128.31 11.555C128.812 11.555 129.296 11.5453 129.76 11.526C130.243 11.5067 130.639 11.4873 130.949 11.468ZM149.294 11.468C149.216 12.28 149.158 13.0727 149.12 13.846C149.1 14.6 149.091 15.18 149.091 15.586C149.091 16.0307 149.1 16.456 149.12 16.862C149.139 17.268 149.158 17.616 149.178 17.906H148.511C148.317 16.456 148.056 15.3153 147.728 14.484C147.418 13.6527 146.964 13.0533 146.365 12.686C145.765 12.3187 144.905 12.135 143.784 12.135H142.537V28.665C142.537 29.4383 142.604 30.0183 142.74 30.405C142.894 30.7917 143.184 31.0527 143.61 31.188C144.054 31.304 144.692 31.3813 145.524 31.42V32C144.982 31.9613 144.286 31.942 143.436 31.942C142.585 31.9227 141.715 31.913 140.826 31.913C139.898 31.913 139.018 31.9227 138.187 31.942C137.375 31.942 136.717 31.9613 136.215 32V31.42C137.046 31.3813 137.674 31.304 138.1 31.188C138.525 31.0527 138.815 30.7917 138.97 30.405C139.124 30.0183 139.202 29.4383 139.202 28.665V12.135H137.926C136.843 12.135 135.992 12.3187 135.374 12.686C134.755 13.0533 134.291 13.6527 133.982 14.484C133.672 15.3153 133.421 16.456 133.228 17.906H132.561C132.599 17.616 132.619 17.268 132.619 16.862C132.638 16.456 132.648 16.0307 132.648 15.586C132.648 15.18 132.628 14.6 132.59 13.846C132.57 13.0727 132.522 12.28 132.445 11.468C133.276 11.4873 134.185 11.5067 135.171 11.526C136.157 11.5453 137.152 11.555 138.158 11.555C139.163 11.555 140.072 11.555 140.884 11.555C141.696 11.555 142.595 11.555 143.581 11.555C144.567 11.555 145.562 11.5453 146.568 11.526C147.573 11.5067 148.482 11.4873 149.294 11.468ZM159.204 11.468V12.048C158.546 12.0673 158.044 12.1447 157.696 12.28C157.367 12.396 157.145 12.628 157.029 12.976C156.913 13.3047 156.855 13.8267 156.855 14.542V29.042C156.855 29.6993 156.903 30.1923 157 30.521C157.116 30.8497 157.328 31.072 157.638 31.188C157.966 31.2847 158.43 31.333 159.03 31.333H160.915C161.746 31.333 162.442 31.217 163.003 30.985C163.583 30.753 164.066 30.405 164.453 29.941C164.839 29.477 165.139 28.8777 165.352 28.143C165.564 27.4083 165.729 26.548 165.845 25.562H166.512C166.454 26.1807 166.425 26.9927 166.425 27.998C166.425 28.3847 166.434 28.955 166.454 29.709C166.492 30.4437 166.55 31.2073 166.628 32C165.642 31.9613 164.53 31.942 163.293 31.942C162.055 31.9227 160.953 31.913 159.987 31.913C159.542 31.913 158.972 31.913 158.276 31.913C157.58 31.913 156.826 31.9227 156.014 31.942C155.221 31.942 154.409 31.9517 153.578 31.971C152.766 31.971 151.983 31.9807 151.229 32V31.42C151.886 31.3813 152.379 31.304 152.708 31.188C153.036 31.072 153.249 30.84 153.346 30.492C153.462 30.144 153.52 29.622 153.52 28.926V14.542C153.52 13.8267 153.462 13.3047 153.346 12.976C153.249 12.628 153.027 12.396 152.679 12.28C152.35 12.1447 151.867 12.0673 151.229 12.048V11.468C151.673 11.4873 152.244 11.5067 152.94 11.526C153.655 11.5453 154.419 11.555 155.231 11.555C155.965 11.555 156.69 11.5453 157.406 11.526C158.14 11.5067 158.74 11.4873 159.204 11.468ZM176.421 11.468V12.048C175.783 12.0673 175.3 12.1447 174.971 12.28C174.642 12.396 174.42 12.628 174.304 12.976C174.188 13.3047 174.13 13.8267 174.13 14.542V28.926C174.13 29.622 174.188 30.144 174.304 30.492C174.42 30.84 174.642 31.072 174.971 31.188C175.3 31.304 175.783 31.3813 176.421 31.42V32C175.957 31.9613 175.367 31.942 174.652 31.942C173.956 31.9227 173.241 31.913 172.506 31.913C171.694 31.913 170.93 31.9227 170.215 31.942C169.519 31.942 168.949 31.9613 168.504 32V31.42C169.161 31.3813 169.654 31.304 169.983 31.188C170.312 31.072 170.524 30.84 170.621 30.492C170.737 30.144 170.795 29.622 170.795 28.926V14.542C170.795 13.8267 170.737 13.3047 170.621 12.976C170.524 12.628 170.302 12.396 169.954 12.28C169.625 12.1447 169.142 12.0673 168.504 12.048V11.468C168.949 11.4873 169.519 11.5067 170.215 11.526C170.93 11.5453 171.694 11.555 172.506 11.555C173.241 11.555 173.956 11.5453 174.652 11.526C175.367 11.5067 175.957 11.4873 176.421 11.468ZM197.202 11.468V12.048C196.545 12.0867 196.052 12.2027 195.723 12.396C195.394 12.5893 195.172 12.9083 195.056 13.353C194.959 13.7783 194.911 14.3873 194.911 15.18V32.116C194.756 32.116 194.602 32.116 194.447 32.116C194.292 32.116 194.128 32.116 193.954 32.116L181.658 14.252V28.172C181.658 28.984 181.716 29.622 181.832 30.086C181.948 30.5307 182.199 30.8497 182.586 31.043C182.973 31.2363 183.562 31.362 184.355 31.42V32C183.988 31.9613 183.514 31.942 182.934 31.942C182.373 31.9227 181.842 31.913 181.339 31.913C180.856 31.913 180.372 31.9227 179.889 31.942C179.406 31.942 179.009 31.9613 178.7 32V31.42C179.338 31.362 179.821 31.246 180.15 31.072C180.479 30.8787 180.701 30.5597 180.817 30.115C180.933 29.6703 180.991 29.0613 180.991 28.288V14.542C180.991 13.8267 180.933 13.3047 180.817 12.976C180.701 12.628 180.479 12.396 180.15 12.28C179.821 12.1447 179.338 12.0673 178.7 12.048V11.468C179.009 11.4873 179.406 11.5067 179.889 11.526C180.372 11.5453 180.856 11.555 181.339 11.555C181.764 11.555 182.18 11.5453 182.586 11.526C182.992 11.5067 183.35 11.4873 183.659 11.468L194.244 26.606V15.296C194.244 14.4647 194.176 13.8267 194.041 13.382C193.925 12.9373 193.674 12.6183 193.287 12.425C192.9 12.2123 192.32 12.0867 191.547 12.048V11.468C191.895 11.4873 192.359 11.5067 192.939 11.526C193.519 11.5453 194.06 11.555 194.563 11.555C195.046 11.555 195.53 11.5453 196.013 11.526C196.496 11.5067 196.893 11.4873 197.202 11.468ZM214.107 11.468C214.03 12.2027 213.972 12.918 213.933 13.614C213.914 14.2907 213.904 14.8127 213.904 15.18C213.904 15.5473 213.914 15.8953 213.933 16.224C213.953 16.5527 213.972 16.8233 213.991 17.036H213.324C213.189 15.7987 212.976 14.8223 212.686 14.107C212.416 13.3917 212 12.889 211.439 12.599C210.898 12.2897 210.134 12.135 209.148 12.135H207.147C206.529 12.135 206.055 12.193 205.726 12.309C205.417 12.4057 205.204 12.6183 205.088 12.947C204.972 13.2563 204.914 13.7493 204.914 14.426V29.042C204.914 29.6993 204.972 30.1923 205.088 30.521C205.204 30.8497 205.417 31.072 205.726 31.188C206.055 31.2847 206.529 31.333 207.147 31.333H209.032C210.134 31.333 211.004 31.159 211.642 30.811C212.3 30.463 212.793 29.8927 213.121 29.1C213.469 28.3073 213.73 27.2247 213.904 25.852H214.571C214.513 26.4127 214.484 27.1473 214.484 28.056C214.484 28.4427 214.494 29.0033 214.513 29.738C214.552 30.4727 214.61 31.2267 214.687 32C213.701 31.9613 212.59 31.942 211.352 31.942C210.115 31.9227 209.013 31.913 208.046 31.913C207.602 31.913 207.031 31.913 206.335 31.913C205.639 31.913 204.885 31.9227 204.073 31.942C203.281 31.942 202.469 31.9517 201.637 31.971C200.825 31.971 200.042 31.9807 199.288 32V31.42C199.946 31.3813 200.439 31.304 200.767 31.188C201.096 31.072 201.309 30.84 201.405 30.492C201.521 30.144 201.579 29.622 201.579 28.926V14.542C201.579 13.8267 201.521 13.3047 201.405 12.976C201.309 12.628 201.086 12.396 200.738 12.28C200.41 12.1447 199.926 12.0673 199.288 12.048V11.468C200.042 11.4873 200.825 11.5067 201.637 11.526C202.469 11.526 203.281 11.5357 204.073 11.555C204.885 11.555 205.639 11.555 206.335 11.555C207.031 11.555 207.602 11.555 208.046 11.555C208.936 11.555 209.941 11.555 211.062 11.555C212.203 11.5357 213.218 11.5067 214.107 11.468ZM209.293 21.386C209.293 21.386 209.293 21.4827 209.293 21.676C209.293 21.8693 209.293 21.966 209.293 21.966H204.044C204.044 21.966 204.044 21.8693 204.044 21.676C204.044 21.4827 204.044 21.386 204.044 21.386H209.293ZM210.134 17.558C210.057 18.66 210.018 19.501 210.018 20.081C210.038 20.661 210.047 21.1927 210.047 21.676C210.047 22.1593 210.057 22.691 210.076 23.271C210.096 23.851 210.144 24.692 210.221 25.794H209.554C209.458 25.156 209.332 24.547 209.177 23.967C209.023 23.3677 208.742 22.8843 208.336 22.517C207.95 22.1497 207.341 21.966 206.509 21.966V21.386C207.128 21.386 207.611 21.2603 207.959 21.009C208.327 20.7577 208.607 20.429 208.8 20.023C208.994 19.617 209.129 19.2013 209.206 18.776C209.303 18.3313 209.39 17.9253 209.467 17.558H210.134ZM223.741 11.12C224.765 11.12 225.548 11.236 226.09 11.468C226.631 11.7 227.105 11.9513 227.511 12.222C227.743 12.3573 227.926 12.4637 228.062 12.541C228.216 12.599 228.361 12.628 228.497 12.628C228.69 12.628 228.825 12.5217 228.903 12.309C228.999 12.0963 229.077 11.7773 229.135 11.352H229.802C229.782 11.7 229.753 12.1157 229.715 12.599C229.695 13.063 229.676 13.6817 229.657 14.455C229.657 15.2283 229.657 16.2433 229.657 17.5H228.99C228.932 16.5527 228.719 15.6343 228.352 14.745C228.004 13.8557 227.482 13.1307 226.786 12.57C226.109 12.0093 225.239 11.729 224.176 11.729C223.19 11.729 222.368 12.0287 221.711 12.628C221.073 13.208 220.754 13.9813 220.754 14.948C220.754 15.7987 220.966 16.514 221.392 17.094C221.817 17.6547 222.397 18.1863 223.132 18.689C223.886 19.1723 224.736 19.7137 225.684 20.313C226.65 20.9317 227.52 21.5503 228.294 22.169C229.067 22.7683 229.676 23.4353 230.121 24.17C230.565 24.9047 230.788 25.794 230.788 26.838C230.788 28.0947 230.488 29.1387 229.889 29.97C229.309 30.782 228.526 31.391 227.54 31.797C226.554 32.203 225.471 32.406 224.292 32.406C223.209 32.406 222.349 32.29 221.711 32.058C221.073 31.826 220.531 31.5843 220.087 31.333C219.661 31.0623 219.333 30.927 219.101 30.927C218.907 30.927 218.762 31.0333 218.666 31.246C218.588 31.4587 218.521 31.7777 218.463 32.203H217.796C217.834 31.7777 217.854 31.2847 217.854 30.724C217.873 30.144 217.883 29.39 217.883 28.462C217.902 27.534 217.912 26.3643 217.912 24.953H218.579C218.656 26.1517 218.869 27.273 219.217 28.317C219.584 29.361 220.135 30.202 220.87 30.84C221.624 31.4587 222.619 31.768 223.857 31.768C224.514 31.768 225.123 31.6423 225.684 31.391C226.244 31.1397 226.699 30.7433 227.047 30.202C227.395 29.6607 227.569 28.9647 227.569 28.114C227.569 27.3213 227.375 26.6253 226.989 26.026C226.621 25.4267 226.099 24.8757 225.423 24.373C224.765 23.851 223.992 23.3193 223.103 22.778C222.194 22.198 221.343 21.618 220.551 21.038C219.758 20.458 219.12 19.7813 218.637 19.008C218.173 18.2347 217.941 17.3163 217.941 16.253C217.941 15.0737 218.211 14.107 218.753 13.353C219.313 12.599 220.029 12.0383 220.899 11.671C221.788 11.3037 222.735 11.12 223.741 11.12Z" fill="black"/>
<g clip-path="url(#clip0_2015_509)">
<path fill-rule="evenodd" clip-rule="evenodd" d="M28.7377 7.08363C29.2607 6.89091 29.7189 6.21602 30.213 5.99634C30.6797 14.8249 31.1786 23.1211 31.6226 31.9625C31.3906 31.9743 30.9505 32.0259 30.6061 31.9625C30.2912 24.2915 30.0269 16.8876 29.6552 9.10604C29.6347 8.67274 29.8149 8.02102 29.2618 7.86836C29.3876 15.7366 29.7974 23.6587 30.0157 31.9625C29.6092 32.0123 28.9798 32.0123 28.5732 31.9625C28.4975 26.1978 28.361 19.8895 28.2783 13.8766C28.2499 11.8094 28.144 9.76934 28.1801 7.8079C28.1889 7.31993 28.3642 7.02644 27.7868 6.87202C27.7769 10.6967 27.8114 15.2625 27.8521 19.2511C27.8959 23.5186 27.9517 27.7534 27.9503 31.9322C27.3813 32.0018 26.6723 31.9428 26.0488 31.9625C26.1596 24.5878 26.254 16.2661 26.4094 8.59288C26.4192 8.10567 26.3358 7.45722 26.4422 7.05315C26.5155 6.77553 27.1272 6.31502 27.4588 6.02657C27.914 5.63055 28.3098 5.29852 28.6392 5C28.7119 5.65776 28.657 6.43292 28.7377 7.08363Z" fill="black"/>
<path fill-rule="evenodd" clip-rule="evenodd" d="M25.4259 31.9625C24.6173 31.9625 23.8086 31.9625 23 31.9625C23.3674 24.9604 23.7744 17.5854 24.1473 10.3745C24.1711 9.91672 24.1355 9.26979 24.2455 8.98562C24.3306 8.76671 24.8205 8.46163 25.0651 8.23062C25.4125 7.90312 25.6965 7.66279 25.9832 7.41566C26.0111 7.41012 26.0141 7.4275 26.016 7.44564C25.8262 15.5187 25.6533 23.8459 25.4259 31.9625Z" fill="black"/>
<path fill-rule="evenodd" clip-rule="evenodd" d="M33 31.9625C32.7046 31.9529 32.3101 31.9763 32.1148 31.9625C31.6399 24.2847 31.1554 16.5679 30.7051 8.86496C31.473 9.06146 31.4024 9.77363 31.4919 10.737C31.8013 14.0646 31.9348 17.4506 32.1804 20.61C32.4846 24.5223 32.7095 28.3056 33 31.9625Z" fill="black"/>
</g>
<defs>
<clipPath id="clip0_2015_509">
<rect width="10" height="27" fill="white" transform="translate(23 5)"/>
</clipPath>
</defs>
</svg>
