<svg width="18" height="53" viewBox="0 0 18 53" fill="none" xmlns="http://www.w3.org/2000/svg">
<g clip-path="url(#clip0_2015_441)">
<path fill-rule="evenodd" clip-rule="evenodd" d="M10.3278 4.09008C11.2693 3.71179 12.0941 2.387 12.9834 1.95578C13.8234 19.2859 14.7216 35.571 15.5207 52.9263C15.1032 52.9496 14.3109 53.0509 13.691 52.9263C13.1242 37.8685 12.6485 23.3349 11.9793 8.06C11.9424 7.20945 12.2669 5.93015 11.2713 5.63048C11.4978 21.0755 12.2354 36.6263 12.6283 52.9263C11.8966 53.0242 10.7636 53.0242 10.0319 52.9263C9.89546 41.6105 9.64975 29.2275 9.50105 17.4245C9.44984 13.3666 9.25927 9.36205 9.32427 5.5118C9.34003 4.55393 9.65566 3.97783 8.61619 3.6747C8.59846 11.1823 8.6605 20.1448 8.73387 27.9744C8.81266 36.3514 8.91311 44.6641 8.91065 52.867C7.88644 53.0035 6.61011 52.8877 5.48792 52.9263C5.68734 38.4501 5.85722 22.1149 6.13691 7.05269C6.15464 6.09631 6.00445 4.82344 6.196 4.03025C6.32796 3.4853 7.42899 2.58134 8.02579 2.01512C8.84516 1.23776 9.55767 0.585993 10.1505 0C10.2815 1.29116 10.1825 2.81277 10.3278 4.09008Z" fill="black"/>
<path fill-rule="evenodd" clip-rule="evenodd" d="M4.36668 52.9263C2.91112 52.9263 1.45556 52.9263 0 52.9263C0.661305 39.1814 1.39401 24.7047 2.06516 10.5499C2.108 9.65133 2.04399 8.38144 2.24194 7.82363C2.39508 7.3939 3.27698 6.79505 3.71719 6.34159C4.34255 5.69872 4.85367 5.22696 5.36972 4.74185C5.41994 4.73097 5.42536 4.76509 5.42881 4.8007C5.08707 20.6477 4.77587 36.9937 4.36668 52.9263Z" fill="black"/>
<path fill-rule="evenodd" clip-rule="evenodd" d="M18 52.9263C17.4682 52.9075 16.7582 52.9535 16.4066 52.9263C15.5518 37.8552 14.6797 22.7074 13.8692 7.58676C15.2514 7.97248 15.1244 9.37046 15.2854 11.2615C15.8423 17.7934 16.0826 24.4401 16.5248 30.6418C17.0723 38.3215 17.4771 45.748 18 52.9263Z" fill="black"/>
</g>
<defs>
<clipPath id="clip0_2015_441">
<rect width="18" height="53" fill="white"/>
</clipPath>
</defs>
</svg>
